<svg xmlns="http://www.w3.org/2000/svg" width="1280" height="500" viewBox="0 0 1280 500">
  <rect width="1280" height="500" fill="#ffffff"/>
  <text x="60" y="70" font-size="30" font-family="Arial, Helvetica, sans-serif" fill="#0f172a">Jenkins pipeline for apidoc</text>

  <rect x="60" y="180" width="150" height="90" rx="12" fill="#e0f2fe" stroke="#0284c7" stroke-width="2"/>
  <text x="95" y="235" font-size="24" font-family="Arial, Helvetica, sans-serif" fill="#0c4a6e">Checkout</text>

  <rect x="270" y="180" width="170" height="90" rx="12" fill="#ede9fe" stroke="#7c3aed" stroke-width="2"/>
  <text x="315" y="220" font-size="24" font-family="Arial, Helvetica, sans-serif" fill="#4c1d95">Maven</text>
  <text x="305" y="250" font-size="18" font-family="Arial, Helvetica, sans-serif" fill="#4c1d95">clean test</text>

  <rect x="500" y="180" width="150" height="90" rx="12" fill="#ecfccb" stroke="#65a30d" stroke-width="2"/>
  <text x="548" y="220" font-size="24" font-family="Arial, Helvetica, sans-serif" fill="#3f6212">npm</text>
  <text x="533" y="250" font-size="18" font-family="Arial, Helvetica, sans-serif" fill="#3f6212">ci</text>

  <rect x="710" y="180" width="180" height="90" rx="12" fill="#fee2e2" stroke="#dc2626" stroke-width="2"/>
  <text x="754" y="220" font-size="24" font-family="Arial, Helvetica, sans-serif" fill="#7f1d1d">apidoc</text>
  <text x="735" y="250" font-size="18" font-family="Arial, Helvetica, sans-serif" fill="#7f1d1d">docs:build</text>

  <rect x="950" y="120" width="220" height="90" rx="12" fill="#dcfce7" stroke="#16a34a" stroke-width="2"/>
  <text x="985" y="160" font-size="24" font-family="Arial, Helvetica, sans-serif" fill="#14532d">archiveArtifacts</text>
  <text x="995" y="190" font-size="18" font-family="Arial, Helvetica, sans-serif" fill="#14532d">build/apidoc/**</text>

  <rect x="950" y="260" width="220" height="90" rx="12" fill="#fef3c7" stroke="#d97706" stroke-width="2"/>
  <text x="1010" y="300" font-size="24" font-family="Arial, Helvetica, sans-serif" fill="#92400e">publishHTML</text>
  <text x="985" y="330" font-size="18" font-family="Arial, Helvetica, sans-serif" fill="#92400e">index.html report</text>

  <line x1="210" y1="225" x2="270" y2="225" stroke="#475569" stroke-width="3"/>
  <polygon points="270,225 254,233 254,217" fill="#475569"/>

  <line x1="440" y1="225" x2="500" y2="225" stroke="#475569" stroke-width="3"/>
  <polygon points="500,225 484,233 484,217" fill="#475569"/>

  <line x1="650" y1="225" x2="710" y2="225" stroke="#475569" stroke-width="3"/>
  <polygon points="710,225 694,233 694,217" fill="#475569"/>

  <line x1="890" y1="210" x2="950" y2="165" stroke="#475569" stroke-width="3"/>
  <polygon points="950,165 940,180 931,166" fill="#475569"/>

  <line x1="890" y1="240" x2="950" y2="305" stroke="#475569" stroke-width="3"/>
  <polygon points="950,305 934,299 946,288" fill="#475569"/>

  <text x="60" y="420" font-size="18" font-family="Arial, Helvetica, sans-serif" fill="#475569">Use this figure alongside the Jenkinsfile section. It matches the article's build, archive and publish flow.</text>
</svg>
