<svg width="1280" height="720" viewBox="0 0 1280 720" xmlns="http://www.w3.org/2000/svg">
  <rect width="1280" height="720" fill="#f8fafc"/>
  <text x="640" y="64" text-anchor="middle" font-size="30" font-family="Arial, sans-serif" fill="#0f172a">spring-startup-analyzer 总体工作流</text>
  <rect x="70" y="140" width="250" height="160" rx="20" fill="#dbeafe" stroke="#60a5fa" stroke-width="3"/>
  <text x="195" y="190" text-anchor="middle" font-size="28" font-family="Arial, sans-serif" fill="#1e3a8a">Spring 应用</text>
  <text x="195" y="230" text-anchor="middle" font-size="20" font-family="Arial, sans-serif" fill="#1e3a8a">Spring Boot / Spring</text>
  <text x="195" y="262" text-anchor="middle" font-size="20" font-family="Arial, sans-serif" fill="#1e3a8a">正常业务启动</text>

  <rect x="400" y="120" width="300" height="210" rx="20" fill="#ede9fe" stroke="#8b5cf6" stroke-width="3"/>
  <text x="550" y="168" text-anchor="middle" font-size="28" font-family="Arial, sans-serif" fill="#5b21b6">Java Agent</text>
  <text x="550" y="210" text-anchor="middle" font-size="20" font-family="Arial, sans-serif" fill="#5b21b6">-javaagent 挂载</text>
  <text x="550" y="244" text-anchor="middle" font-size="20" font-family="Arial, sans-serif" fill="#5b21b6">字节码增强</text>
  <text x="550" y="278" text-anchor="middle" font-size="20" font-family="Arial, sans-serif" fill="#5b21b6">启动阶段采集</text>

  <rect x="780" y="90" width="420" height="270" rx="20" fill="#dcfce7" stroke="#22c55e" stroke-width="3"/>
  <text x="990" y="138" text-anchor="middle" font-size="28" font-family="Arial, sans-serif" fill="#166534">采集结果</text>
  <rect x="830" y="170" width="150" height="56" rx="12" fill="#ffffff" stroke="#86efac" stroke-width="2"/>
  <text x="905" y="205" text-anchor="middle" font-size="20" font-family="Arial, sans-serif" fill="#166534">Bean 详情</text>
  <rect x="1000" y="170" width="150" height="56" rx="12" fill="#ffffff" stroke="#86efac" stroke-width="2"/>
  <text x="1075" y="205" text-anchor="middle" font-size="20" font-family="Arial, sans-serif" fill="#166534">时间轴</text>
  <rect x="830" y="250" width="150" height="56" rx="12" fill="#ffffff" stroke="#86efac" stroke-width="2"/>
  <text x="905" y="285" text-anchor="middle" font-size="20" font-family="Arial, sans-serif" fill="#166534">方法统计</text>
  <rect x="1000" y="250" width="150" height="56" rx="12" fill="#ffffff" stroke="#86efac" stroke-width="2"/>
  <text x="1075" y="285" text-anchor="middle" font-size="20" font-family="Arial, sans-serif" fill="#166534">火焰图</text>

  <rect x="180" y="430" width="280" height="170" rx="20" fill="#fff7ed" stroke="#fb923c" stroke-width="3"/>
  <text x="320" y="478" text-anchor="middle" font-size="28" font-family="Arial, sans-serif" fill="#9a3412">定位热点</text>
  <text x="320" y="520" text-anchor="middle" font-size="20" font-family="Arial, sans-serif" fill="#9a3412">最慢 Bean</text>
  <text x="320" y="552" text-anchor="middle" font-size="20" font-family="Arial, sans-serif" fill="#9a3412">关键路径</text>
  <text x="320" y="584" text-anchor="middle" font-size="20" font-family="Arial, sans-serif" fill="#9a3412">线程热点</text>

  <rect x="540" y="430" width="260" height="170" rx="20" fill="#fee2e2" stroke="#ef4444" stroke-width="3"/>
  <text x="670" y="478" text-anchor="middle" font-size="28" font-family="Arial, sans-serif" fill="#991b1b">优化动作</text>
  <text x="670" y="520" text-anchor="middle" font-size="20" font-family="Arial, sans-serif" fill="#991b1b">改代码</text>
  <text x="670" y="552" text-anchor="middle" font-size="20" font-family="Arial, sans-serif" fill="#991b1b">删依赖</text>
  <text x="670" y="584" text-anchor="middle" font-size="20" font-family="Arial, sans-serif" fill="#991b1b">异步 Bean</text>

  <rect x="870" y="430" width="250" height="170" rx="20" fill="#e0f2fe" stroke="#38bdf8" stroke-width="3"/>
  <text x="995" y="478" text-anchor="middle" font-size="28" font-family="Arial, sans-serif" fill="#075985">再次验证</text>
  <text x="995" y="520" text-anchor="middle" font-size="20" font-family="Arial, sans-serif" fill="#075985">重新采集</text>
  <text x="995" y="552" text-anchor="middle" font-size="20" font-family="Arial, sans-serif" fill="#075985">前后对比</text>
  <text x="995" y="584" text-anchor="middle" font-size="20" font-family="Arial, sans-serif" fill="#075985">确认收益</text>

  <line x1="320" y1="220" x2="400" y2="220" stroke="#64748b" stroke-width="4"/>
  <polygon points="400,220 384,212 384,228" fill="#64748b"/>
  <line x1="700" y1="220" x2="780" y2="220" stroke="#64748b" stroke-width="4"/>
  <polygon points="780,220 764,212 764,228" fill="#64748b"/>

  <line x1="990" y1="360" x2="990" y2="405" stroke="#64748b" stroke-width="4"/>
  <polygon points="990,405 982,389 998,389" fill="#64748b"/>
  <line x1="870" y1="515" x2="800" y2="515" stroke="#64748b" stroke-width="4"/>
  <polygon points="800,515 816,507 816,523" fill="#64748b"/>
  <line x1="540" y1="515" x2="460" y2="515" stroke="#64748b" stroke-width="4"/>
  <polygon points="460,515 476,507 476,523" fill="#64748b"/>

  <text x="640" y="670" text-anchor="middle" font-size="22" font-family="Arial, sans-serif" fill="#334155">采集不是终点，真正的价值在于形成“定位 - 优化 - 验证”的启动优化闭环</text>
</svg>
