<svg width="1280" height="760" viewBox="0 0 1280 760" xmlns="http://www.w3.org/2000/svg">
  <rect width="1280" height="760" fill="#f8fafc"/>
  <text x="640" y="58" text-anchor="middle" font-size="30" font-family="Arial, sans-serif" fill="#0f172a">spring-startup-analyzer 报告面板示意图</text>

  <rect x="60" y="100" width="1160" height="600" rx="24" fill="#ffffff" stroke="#cbd5e1" stroke-width="3"/>
  <rect x="90" y="130" width="1100" height="70" rx="16" fill="#e2e8f0"/>
  <text x="130" y="174" font-size="22" font-family="Arial, sans-serif" fill="#334155">Project: demo-app</text>
  <text x="480" y="174" font-size="22" font-family="Arial, sans-serif" fill="#334155">Startup Time: 42.8s</text>
  <text x="820" y="174" font-size="22" font-family="Arial, sans-serif" fill="#334155">Hotspot Beans: 12</text>

  <rect x="90" y="230" width="320" height="200" rx="18" fill="#eff6ff" stroke="#60a5fa" stroke-width="2.5"/>
  <text x="250" y="270" text-anchor="middle" font-size="24" font-family="Arial, sans-serif" fill="#1d4ed8">Bean 初始化详情</text>
  <line x1="115" y1="295" x2="385" y2="295" stroke="#93c5fd" stroke-width="2"/>
  <text x="120" y="325" font-size="18" font-family="Arial, sans-serif" fill="#1e3a8a">cacheWarmupBean</text>
  <text x="340" y="325" font-size="18" font-family="Arial, sans-serif" fill="#1e3a8a">18.2s</text>
  <text x="120" y="360" font-size="18" font-family="Arial, sans-serif" fill="#1e3a8a">mqClientFactory</text>
  <text x="340" y="360" font-size="18" font-family="Arial, sans-serif" fill="#1e3a8a">9.6s</text>
  <text x="120" y="395" font-size="18" font-family="Arial, sans-serif" fill="#1e3a8a">ruleEngineBean</text>
  <text x="340" y="395" font-size="18" font-family="Arial, sans-serif" fill="#1e3a8a">7.4s</text>

  <rect x="440" y="230" width="360" height="200" rx="18" fill="#f5f3ff" stroke="#8b5cf6" stroke-width="2.5"/>
  <text x="620" y="270" text-anchor="middle" font-size="24" font-family="Arial, sans-serif" fill="#6d28d9">Bean 初始化时序图</text>
  <line x1="470" y1="380" x2="770" y2="380" stroke="#c4b5fd" stroke-width="3"/>
  <rect x="490" y="315" width="95" height="28" rx="8" fill="#a78bfa"/>
  <rect x="600" y="335" width="140" height="28" rx="8" fill="#8b5cf6"/>
  <rect x="525" y="360" width="210" height="28" rx="8" fill="#7c3aed"/>
  <text x="500" y="410" font-size="16" font-family="Arial, sans-serif" fill="#5b21b6">关键路径越长，越值得优先优化</text>

  <rect x="830" y="230" width="360" height="200" rx="18" fill="#f0fdf4" stroke="#22c55e" stroke-width="2.5"/>
  <text x="1010" y="270" text-anchor="middle" font-size="24" font-family="Arial, sans-serif" fill="#15803d">方法调用统计</text>
  <line x1="860" y1="295" x2="1160" y2="295" stroke="#86efac" stroke-width="2"/>
  <text x="870" y="326" font-size="18" font-family="Arial, sans-serif" fill="#166534">URLClassLoader.findResource</text>
  <text x="1100" y="326" font-size="18" font-family="Arial, sans-serif" fill="#166534">1432 次</text>
  <text x="870" y="360" font-size="18" font-family="Arial, sans-serif" fill="#166534">ConfigParser.parse</text>
  <text x="1100" y="360" font-size="18" font-family="Arial, sans-serif" fill="#166534">4.6s</text>
  <text x="870" y="394" font-size="18" font-family="Arial, sans-serif" fill="#166534">ClassPathScanner.scan</text>
  <text x="1100" y="394" font-size="18" font-family="Arial, sans-serif" fill="#166534">3.1s</text>

  <rect x="90" y="465" width="520" height="200" rx="18" fill="#fff7ed" stroke="#fb923c" stroke-width="2.5"/>
  <text x="350" y="505" text-anchor="middle" font-size="24" font-family="Arial, sans-serif" fill="#c2410c">线程 wall clock 火焰图</text>
  <rect x="120" y="610" width="120" height="24" rx="6" fill="#fdba74"/>
  <rect x="245" y="575" width="150" height="59" rx="6" fill="#fb923c"/>
  <rect x="400" y="548" width="170" height="86" rx="6" fill="#f97316"/>
  <text x="350" y="542" text-anchor="middle" font-size="16" font-family="Arial, sans-serif" fill="#9a3412">宽度代表累计耗时，最适合看调用栈热点</text>

  <rect x="640" y="465" width="550" height="200" rx="18" fill="#fef2f2" stroke="#f87171" stroke-width="2.5"/>
  <text x="915" y="505" text-anchor="middle" font-size="24" font-family="Arial, sans-serif" fill="#b91c1c">未加载 Jar 与优化建议</text>
  <text x="675" y="545" font-size="20" font-family="Arial, sans-serif" fill="#991b1b">unused-lib-a.jar</text>
  <text x="1025" y="545" font-size="20" font-family="Arial, sans-serif" fill="#991b1b">未在启动阶段使用</text>
  <text x="675" y="580" font-size="20" font-family="Arial, sans-serif" fill="#991b1b">legacy-sdk.jar</text>
  <text x="1025" y="580" font-size="20" font-family="Arial, sans-serif" fill="#991b1b">建议复查依赖</text>
  <text x="675" y="615" font-size="20" font-family="Arial, sans-serif" fill="#991b1b">fat jar 过大</text>
  <text x="1025" y="615" font-size="20" font-family="Arial, sans-serif" fill="#991b1b">检查扫描范围</text>

  <text x="640" y="730" text-anchor="middle" font-size="22" font-family="Arial, sans-serif" fill="#334155">推荐阅读顺序：Bean 详情 -> 时序图 -> 方法统计 -> 火焰图 -> 依赖瘦身</text>
</svg>
